<svg xmlns="http://www.w3.org/2000/svg" width="187px" height="41px" viewBox="0 0 186.8 41">
	<path fill="#fff" d="M14.6.5C9.1.5 1.4 4 1.4 14.2c0 10.1 6.5 13.6 13.4 13.6 4.6 0 8.4-1.3 11.4-3.9l-3-4.7c-1.8 1.6-4.7 3.2-7.8 3.2-3.3 0-5.7-1.7-6.1-6h17.4v-1.2C26.6 3.2 20 .5 14.6.5zM9.3 11.6c.6-3.8 2.7-5.5 5.2-5.5 3 0 4.6 1.8 5 5.5H9.3zM60.5.5c-4.1 0-7.1 2.7-8.7 4.7C51.1 2.3 49 .5 44.6.5c-4.1 0-7 2.6-8.6 4.7V1h-7.9v26.2H36V9.7C37.8 8.1 39.4 7 41.4 7c2.3 0 2.9 1.2 2.9 3.6v16.6h7.9V9.7C53.8 8.1 55.4 7 57.4 7c2.3 0 2.9 1.2 2.9 3.6v16.6h7.9V8.5c0-4.7-2.4-8-7.7-8zm25.3 0c-3.9 0-6.3 2.2-8.1 4.5V1h-7.9v39.5l7.9-3.4v-13c2 2.2 4.4 3.5 8 3.5 6 0 10.2-4.5 10.2-13.5C95.8 5.1 91.7.5 85.8.5zM83 21.7c-2.1 0-3.5-.8-5.3-2.4V9.6C79 8.3 80.8 7 82.9 7c3.5 0 5.1 2.8 5.1 7.1-.1 4.9-1.7 7.6-5 7.6zM110.1.5C104.7.5 97 4 97 14.2c0 10.1 6.5 13.6 13.4 13.6 4.6 0 8.4-1.3 11.4-3.9l-3-4.7c-1.8 1.6-4.7 3.2-7.8 3.2-3.3 0-5.7-1.7-6.1-6h17.4v-1.2c-.1-12-6.7-14.7-12.2-14.7zm-5.2 11.1c.6-3.8 2.7-5.5 5.2-5.5 3 0 4.6 1.8 5 5.5h-10.2zM140.7.5h-.2c-4.9 0-7.4 2.7-8.9 4.9V1h-7.9v26.2h7.9V11c1.5-1.9 3.8-3.6 7-3.6.5 0 1.8.1 2.1.1v-7zm12.8 0c-6.4 0-13.4 3.4-13.4 13.7 0 10.2 7.1 13.6 13.4 13.6 6.3 0 13.4-3.4 13.4-13.6 0-10.3-7-13.7-13.4-13.7zm0 21.8c-4 0-5.5-3.6-5.5-8 0-4.7 1.7-7.9 5.5-7.9 3.9 0 5.5 3.5 5.5 7.9 0 4.7-1.7 8-5.5 8zM185.1.5c-4.9 0-7.4 2.7-8.9 4.9V1h-7.9v26.2h7.9V11c1.5-1.9 3.8-3.6 7-3.6.5 0 1.8.1 2.1.1l.1-7h-.3z"/>
</svg>