<svg xmlns="http://www.w3.org/2000/svg" data-name="Layer 1" viewBox="0 0 283 283" fill="currentColor"><path d="M230 102s18-16 30-33 10-17 10-24a41 41 0 0 0-81 0c0 7 4 16 10 24s31 33 31 33zm0-73a16 16 0 1 1-16 16 16 16 0 0 1 16-15zM66 185a41 41 0 0 0-41 41c0 7 4 16 10 24s30 33 30 33 18-16 30-33 10-17 10-24a41 41 0 0 0-41-41zm0 56a16 16 0 1 1 16-16 16 16 0 0 1-16 15zm123 8l10 22a141 141 0 0 0 34-21l-16-19a117 117 0 0 1-28 18zm-64 9l-4 24h40l-3-24a119 119 0 0 1-33 0zm114-50l20 14a141 141 0 0 0 17-36l-23-7a117 117 0 0 1-14 29zm40-101l-24 6a118 118 0 0 1 4 29v4h24v-5a142 142 0 0 0-4-34zM92 35L82 13a141 141 0 0 0-33 22l16 18a117 117 0 0 1 27-18zM43 78L23 65a141 141 0 0 0-17 36l23 7a117 117 0 0 1 14-30zm114-53l3-24a143 143 0 0 0-40 1l4 24a119 119 0 0 1 33-1zM24 142v-2H0v2a142 142 0 0 0 5 37l23-6a118 118 0 0 1-4-31z"/></svg>